<svg xmlns="http://www.w3.org/2000/svg" width="472.826" height="219.947" viewBox="0 0 472.826 219.947">
  <g id="Layer_x0020_1" transform="translate(-3978.529 -4143.89)">
    <path id="Path_519" data-name="Path 519" d="M4070.215,5434.145a85.554,85.554,0,1,0-.83,170.727l.049-10.252a67.614,67.614,0,1,1,.657-135.01Z" transform="translate(0 -1241.204)" fill="#006496" fill-rule="evenodd"/>
    <path id="Path_520" data-name="Path 520" d="M6732.465,5650.842h-26.07a24.053,24.053,0,0,1-18.084-7.946q-7.515-7.927-8.22-16.95v-34.759a25.583,25.583,0,0,1,7.75-18.789,25.314,25.314,0,0,1,18.554-7.751h1.292a2.328,2.328,0,0,1,1.057.235,33.284,33.284,0,0,0-6.224-8.924,42.032,42.032,0,0,0-8.572-6.811V5527.54a59.646,59.646,0,0,1,27.6,21.489,57.367,57.367,0,0,1,10.922,34.408Zm-19.259-19.023V5588.6a5.7,5.7,0,0,0-2.349-3.875,7.682,7.682,0,0,0-4.463-1.292,7.26,7.26,0,0,0-6.811,6.811v34.759a3.872,3.872,0,0,0,.234,1.174,13.015,13.015,0,0,0,.7,1.644,9.663,9.663,0,0,0,2.349,2.466,5.6,5.6,0,0,0,3.522,1.292Z" transform="translate(-2599.295 -1331.272)" fill="#006496"/>
    <path id="Path_521" data-name="Path 521" d="M8498.216,5746.353h-19.494v-93.945a6.451,6.451,0,0,0-6.812-6.811,6.136,6.136,0,0,0-4.579,2.114,7.243,7.243,0,0,0-2,5.167v93.475h-19.729v-93.945a6.771,6.771,0,0,0-1.879-4.814,6.182,6.182,0,0,0-4.7-2,6.283,6.283,0,0,0-4.932,2.114,6.907,6.907,0,0,0-1.879,4.7v93.945H8412.49v-93.005a26.463,26.463,0,0,1,26.539-26.539,24.416,24.416,0,0,1,8.926,1.644,22.757,22.757,0,0,1,7.28,4.462,29.372,29.372,0,0,1,7.751-4.462,24.409,24.409,0,0,1,8.924-1.644,25.2,25.2,0,0,1,18.673,7.75,25.788,25.788,0,0,1,7.633,18.789Z" transform="translate(-4266.115 -1426.783)" fill="#006496"/>
    <path id="Path_522" data-name="Path 522" d="M11061.9,4219.43h-15.2v100.141H11027.2V4170.43a25.587,25.587,0,0,1,7.75-18.79,25.316,25.316,0,0,1,18.555-7.75h14.712v19.729H11053.5a7.694,7.694,0,0,0-4.814,1.526,5.148,5.148,0,0,0-2,4.345v30.68h15.2Z" transform="translate(-6781.847)" fill="#ff3232"/>
    <path id="Path_523" data-name="Path 523" d="M12172.883,5724.042a24.646,24.646,0,0,1-7.75,18.28,25.873,25.873,0,0,1-18.789,7.554,25.39,25.39,0,0,1-18.554-7.672,24.765,24.765,0,0,1-7.75-18.162v-70.616a25.762,25.762,0,0,1,7.75-18.867,25.314,25.314,0,0,1,18.554-7.75,26.461,26.461,0,0,1,26.539,26.617Zm-19.728.7v-72.3a6.8,6.8,0,0,0-1.879-4.853,6.459,6.459,0,0,0-4.933-2,6.023,6.023,0,0,0-4.7,2.114,6.929,6.929,0,0,0-1.879,4.736v72.3a6.5,6.5,0,0,0,1.879,4.58,6.183,6.183,0,0,0,4.7,2,6.459,6.459,0,0,0,4.933-2,6.775,6.775,0,0,0,1.879-4.815Z" transform="translate(-7833.318 -1426.784)" fill="#ff3232"/>
    <path id="Path_524" data-name="Path 524" d="M13895.116,5549.147a39.595,39.595,0,0,0-19.259,34.29v67.4H13856.6v-67.4a57.379,57.379,0,0,1,10.92-34.408,59.653,59.653,0,0,1,27.6-21.489Z" transform="translate(-9504.141 -1331.272)" fill="#ff3232"/>
    <path id="Path_525" data-name="Path 525" d="M14928.614,4319.646a59.164,59.164,0,0,1-42.51-17.614q-17.615-17.38-17.614-42.275a59.891,59.891,0,0,1,40.865-56.836v-58.95h19.259Zm-19.259-23.72v-71.868a41.407,41.407,0,0,0-15.617,14.561,38.944,38.944,0,0,0-6.225,21.608,38.145,38.145,0,0,0,6.225,21.137A41.417,41.417,0,0,0,14909.355,4295.925Z" transform="translate(-10477.727 -0.076)" fill="#ff3232"/>
    <path id="Path_526" data-name="Path 526" d="M6680.08,9441.506v18.807h4.269v-18.807Zm12.415,18.807v-5.664c0-3.07-.055-5.721-.167-8.2l.084-.028a69.969,69.969,0,0,0,3.264,6.641l4.018,7.255h4.465v-18.807h-3.906v5.469a69.9,69.9,0,0,0,.362,7.868h-.084a54.543,54.543,0,0,0-3.069-6.445l-3.906-6.892h-4.966v18.807Zm15.179-.865a12.267,12.267,0,0,0,5.33,1.172c5.162,0,7.589-2.707,7.589-5.859,0-2.65-1.562-4.381-4.883-5.608-2.428-.921-3.488-1.451-3.488-2.65,0-.978.893-1.813,2.734-1.813a8.927,8.927,0,0,1,3.934.893l.949-3.4a11.047,11.047,0,0,0-4.8-.977c-4.437,0-7.115,2.455-7.115,5.664,0,2.734,2.037,4.464,5.162,5.553,2.26.809,3.153,1.479,3.153,2.65,0,1.228-1.032,2.037-2.986,2.037a10.848,10.848,0,0,1-4.715-1.172Zm19.978.865h4.269v-15.234h5.133v-3.572H6722.6v3.572h5.05Zm12.221-18.807v18.807h4.269v-18.807Zm12.138,18.807h4.269v-15.234h5.133v-3.572h-14.452v3.572h5.05Zm12.192-18.807V9452c0,6,2.791,8.622,7.534,8.622,4.911,0,7.84-2.763,7.84-8.566v-10.547h-4.241v10.826c0,3.32-1.228,4.883-3.46,4.883-2.176,0-3.4-1.646-3.4-4.883v-10.826Zm23.243,18.807h4.269v-15.234h5.134v-3.572h-14.453v3.572h5.05Zm23.41-11.412h-6.92v-3.906h7.338v-3.488h-11.607v18.807h12v-3.488h-7.729v-4.464h6.92Zm18.191-7.7c-5.553,0-9.151,4.213-9.151,9.85,0,5.356,3.264,9.57,8.845,9.57,5.5,0,9.235-3.739,9.235-9.905C6837.975,9445.523,6834.822,9441.2,6829.046,9441.2Zm-.111,3.376c2.929,0,4.547,2.9,4.547,6.278,0,3.655-1.646,6.39-4.52,6.39-2.846,0-4.576-2.595-4.576-6.278C6824.386,9447.31,6826.061,9444.575,6828.935,9444.575Zm12.388,15.737h4.269v-7.562h6.752v-3.46h-6.752v-4.3h7.228v-3.488h-11.5Zm37.081,0h4.157l-1.032-18.807h-5.553l-2.009,6.25c-.613,2.093-1.255,4.576-1.786,6.753h-.083c-.419-2.2-1-4.576-1.591-6.725l-1.841-6.278H6863l-1.2,18.807h3.935l.335-7.144c.139-2.344.223-5.245.334-7.784h.056c.446,2.455,1.088,5.134,1.7,7.365l2.009,7.255h3.321l2.288-7.338c.725-2.2,1.506-4.883,2.092-7.282h.084c0,2.734.083,5.469.167,7.729Zm17.662-4.828,1.451,4.828h4.576l-5.832-18.807h-5.58l-5.748,18.807h4.408l1.339-4.828Zm-4.771-3.18,1.116-3.99c.307-1.088.586-2.512.865-3.627h.056c.279,1.115.614,2.511.948,3.627l1.172,3.99Zm17.773,8.008v-5.664c0-3.07-.056-5.721-.167-8.2l.084-.028a69.972,69.972,0,0,0,3.265,6.641l4.018,7.255h4.464v-18.807h-3.907v5.469a69.894,69.894,0,0,0,.363,7.868h-.084a54.463,54.463,0,0,0-3.069-6.445l-3.906-6.892h-4.967v18.807Zm25.669-4.828,1.451,4.828h4.576l-5.832-18.807h-5.58l-5.749,18.807h4.409l1.34-4.828Zm-4.77-3.18,1.116-3.99c.307-1.088.586-2.512.865-3.627H6932c.28,1.115.614,2.511.949,3.627l1.172,3.99Zm28.877-2.734h-7v3.32h2.9v3.91a5.73,5.73,0,0,1-2.092.274c-3.488,0-5.916-2.274-5.916-6.139,0-4.087,2.679-6.11,6.222-6.11a10.351,10.351,0,0,1,4.381.813l.893-3.408a12.954,12.954,0,0,0-5.217-.921c-6.166,0-10.715,3.572-10.742,9.85a9.043,9.043,0,0,0,2.65,6.808c1.73,1.675,4.213,2.54,7.645,2.54a21.039,21.039,0,0,0,6.278-1.061Zm15.067-.67h-6.92v-3.906h7.338v-3.488h-11.607v18.807h12v-3.488h-7.729v-4.464h6.92Zm20.452,11.412h4.157l-1.032-18.807h-5.552l-2.009,6.25c-.614,2.093-1.255,4.576-1.786,6.753h-.083c-.419-2.2-1-4.576-1.591-6.725l-1.841-6.278h-5.664l-1.2,18.807h3.934l.335-7.144c.139-2.344.223-5.245.334-7.784h.056c.446,2.455,1.088,5.134,1.7,7.365l2.009,7.255h3.32l2.288-7.338c.726-2.2,1.506-4.883,2.093-7.282h.083c0,2.734.083,5.469.167,7.729Zm19.169-11.412h-6.92v-3.906h7.338v-3.488h-11.607v18.807h12v-3.488h-7.729v-4.464h6.92Zm8.174,11.412v-5.664c0-3.07-.055-5.721-.167-8.2l.084-.028a69.855,69.855,0,0,0,3.265,6.641l4.018,7.255h4.465v-18.807h-3.907v5.469a69.894,69.894,0,0,0,.363,7.868h-.084a54.543,54.543,0,0,0-3.069-6.445l-3.905-6.892H7017.8v18.807Zm19.531,0h4.27v-15.234h5.134v-3.572h-14.453v3.572h5.05Z" transform="translate(-2599.285 -5096.782)" fill="#006496"/>
  </g>
</svg>
